<!-- Generated by IcoMoon.io -->
<svg version="1.1" xmlns="http://www.w3.org/2000/svg" width="512" height="512" viewBox="0 0 512 512">
<title></title>
<g id="icomoon-ignore">
</g>
<path d="M512.001 272.005c0-1.147-0.125-2.311-0.382-3.47-1.625-7.324-8.119-12.535-15.62-12.535h-240v-240c0-7.501-5.211-13.995-12.535-15.62s-14.792 2.057-17.964 8.854l-224 480c-2.844 6.098-1.571 13.322 3.186 18.080s11.983 6.030 18.080 3.186l480-224c5.72-2.671 9.235-8.386 9.235-14.495zM223.999 88.121v183.879c0 8.837 7.163 16 16 16h183.879l-374.774 174.895 174.894-374.774z"></path>
</svg>
